<?xml version="1.0" encoding="UTF-8"?>
<!DOCTYPE svg PUBLIC "-//W3C//DTD SVG 1.1//EN" "http://www.w3.org/Graphics/SVG/1.1/DTD/svg11.dtd">
<!-- Creator: CorelDRAW -->
<svg xmlns="http://www.w3.org/2000/svg" xml:space="preserve" width="40mm" height="40mm" version="1.1" style="shape-rendering:geometricPrecision; text-rendering:geometricPrecision; image-rendering:optimizeQuality; fill-rule:evenodd; clip-rule:evenodd"
viewBox="0 0 4000 4000"
 xmlns:xlink="http://www.w3.org/1999/xlink"
 xmlns:xodm="http://www.corel.com/coreldraw/odm/2003">
 <defs>
  <style type="text/css">
   <![CDATA[
    .fil1 {fill:#D6113F}
    .fil0 {fill:white}
   ]]>
  </style>
 </defs>
 <g id="Слой_x0020_1">
  <metadata id="CorelCorpID_0Corel-Layer"/>
  <path class="fil0" d="M3993.4 2006.6c0,-1104.56 -895.43,-2000 -2000,-2000 -1104.57,0 -2000,895.44 -2000,2000 0,1104.56 895.43,2000 2000,2000 1104.57,0 2000,-895.44 2000,-2000z"/>
  <path class="fil1" d="M3893.38 2006.6c0,-1049.34 -850.64,-1899.99 -1899.99,-1899.99 -1049.35,0 -1900,850.65 -1900,1899.99 0,1049.34 850.65,1899.99 1900,1899.99 1049.35,0 1899.99,-850.65 1899.99,-1899.99z"/>
  <path class="fil0" d="M741.56 1321.34l-277.55 0 0 731.84c0,153.45 8.93,269.57 27.12,348.05 12.44,53.28 37.96,103.68 77.2,152.17 39.24,48.5 92.52,87.74 159.83,118.04 67.32,30.31 166.21,45.3 296.69,45.3 108.15,0 195.56,-14.03 262.88,-41.79 66.99,-27.75 120.59,-64.76 160.46,-111.66 40.2,-46.89 67.64,-104.32 82.63,-172.27 14.99,-67.95 22.33,-184.39 22.33,-349.01l0 -720.67 -277.55 0 0 758.64c0,108.46 -4.14,185.99 -12.12,232.88 -7.98,46.9 -31.58,86.14 -71.14,118.36 -39.56,32.22 -98.26,48.17 -175.78,48.17 -76.57,0 -136.86,-16.91 -181.21,-51.04 -44.02,-33.82 -71.78,-79.12 -83.58,-135.27 -6.7,-34.77 -10.21,-111.02 -10.21,-229.05l0 -742.69zm1095.2 0l0 1370.52 277.55 0 0 -1370.52 -277.55 0zm668.35 164.62c-117.72,126.33 -176.74,303.71 -176.74,531.81 0,215.97 58.7,386.01 175.79,510.43 117.4,124.42 267.02,186.63 449.18,186.63 147.07,0 268.29,-36.69 364,-109.74 95.71,-73.38 164.3,-185.36 205.45,-336.25l-267.98 -82.31c-22.97,100.49 -61.25,173.87 -114.21,220.76 -52.95,46.9 -116.44,70.19 -190.13,70.19 -99.86,0 -180.89,-36.69 -243.42,-110.38 -62.21,-73.38 -93.47,-196.84 -93.47,-369.75 0,-163.34 31.58,-281.38 95.07,-354.11 63.16,-73.06 145.79,-109.43 247.56,-109.43 73.37,0 135.9,20.42 187.58,61.57 51.37,41.16 85.18,97.3 101.45,168.13l273.72 -65.08c-31.26,-110.07 -77.84,-194.29 -140.37,-252.99 -104.64,-99.21 -240.86,-148.98 -408.66,-148.98 -192.05,0 -347.1,63.17 -464.82,189.5z"/>
 </g>
</svg>
