<?xml version="1.0" encoding="UTF-8"?>
<!DOCTYPE svg PUBLIC "-//W3C//DTD SVG 1.1//EN" "http://www.w3.org/Graphics/SVG/1.1/DTD/svg11.dtd">
<!-- Creator: CorelDRAW -->
<svg xmlns="http://www.w3.org/2000/svg" xml:space="preserve" width="28.5mm" height="32mm" version="1.1" style="shape-rendering:geometricPrecision; text-rendering:geometricPrecision; image-rendering:optimizeQuality; fill-rule:evenodd; clip-rule:evenodd"
viewBox="0 0 2850 3200"
 xmlns:xlink="http://www.w3.org/1999/xlink"
 xmlns:xodm="http://www.corel.com/coreldraw/odm/2003">
 <defs>
  <style type="text/css">
   <![CDATA[
    .fil0 {fill:#D6113F}
   ]]>
  </style>
 </defs>
 <g id="Слой_x0020_1">
  <metadata id="CorelCorpID_0Corel-Layer"/>
  <path class="fil0" d="M1419.13 275.57l1150 649.63 0 1350 -1150 649.63 -1150 -649.63 0 -1350 1150 -649.63zm1400 2124.63l0 -1600 -1400 -787.98 -1400 787.98 0 1600 1400 787.98 1400 -787.98zm-447.02 -1323.44c-305.89,-180.18 -296.34,-174.55 -602.24,-354.74l-1.18 277.85 357.55 210.62 0 130.61 240 0 5.87 -264.34zm-826.3 1538.49l0 -2026.47 -129.06 -70 -110.94 70 0 1746.47 -580.22 -341.67c0,-355.02 0,-710.03 0,-1065.05l-240 140 0 1055.05 957.16 568.82 103.06 -77.15zm580.43 -592.62l-357.55 210.62 1.18 277.85c305.9,-180.19 296.35,-174.56 602.24,-354.74l-5.87 -264.34 -240 0 0 130.61z"/>
 </g>
</svg>
