<?xml version="1.0" encoding="UTF-8"?>
<!DOCTYPE svg PUBLIC "-//W3C//DTD SVG 1.1//EN" "http://www.w3.org/Graphics/SVG/1.1/DTD/svg11.dtd">
<!-- Creator: CorelDRAW -->
<svg xmlns="http://www.w3.org/2000/svg" xml:space="preserve" width="32mm" height="32mm" version="1.1" style="shape-rendering:geometricPrecision; text-rendering:geometricPrecision; image-rendering:optimizeQuality; fill-rule:evenodd; clip-rule:evenodd"
viewBox="0 0 3200 3200"
 xmlns:xlink="http://www.w3.org/1999/xlink"
 xmlns:xodm="http://www.corel.com/coreldraw/odm/2003">
 <defs>
  <style type="text/css">
   <![CDATA[
    .fil0 {fill:#D6113F}
    .fil1 {fill:white}
   ]]>
  </style>
 </defs>
 <g id="Слой_x0020_1">
  <metadata id="CorelCorpID_0Corel-Layer"/>
  <path class="fil0" d="M3199.8 1600.2c0,-883.65 -716.35,-1600 -1600,-1600 -883.65,0 -1600,716.35 -1600,1600 0,883.65 716.35,1600 1600,1600 883.65,0 1600,-716.35 1600,-1600z"/>
  <path class="fil1" d="M2179.77 1946.68l-293.26 172.75 0.97 227.89c250.9,-147.79 243.06,-143.17 493.95,-290.96l-4.81 -216.81 -196.85 0 0 107.13zm-293.26 -838.87l293.26 172.75 0 107.13 196.85 0 4.81 -216.82c-250.89,-147.78 -243.05,-143.16 -493.95,-290.95l-0.97 227.89zm-182.81 1324.93l0 -1662.11 -105.85 -57.41 -91 57.41 0 1432.46 -475.89 -280.24c0,-291.19 0,-582.37 0,-873.55l-196.85 114.82 0 865.36 785.06 466.54 84.53 -63.28zm839.33 -278.91l-943.23 532.83 -943.23 -532.83 0 -1107.27 943.23 -532.82 943.23 532.82 0 1107.27zm205.05 102.53l0 -1312.32 -1148.28 -646.3 -1148.28 646.3 0 1312.32 1148.28 646.3 1148.28 -646.3z"/>
  <path class="fil1" d="M99.8 1600.2c0,-828.43 671.57,-1500 1500,-1500 828.43,0 1500,671.57 1500,1500 0,828.43 -671.57,1500 -1500,1500 -828.43,0 -1500,-671.57 -1500,-1500zm3050 0c0,-856.05 -693.95,-1550 -1550,-1550 -856.05,0 -1550,693.95 -1550,1550 0,856.05 693.95,1550 1550,1550 856.05,0 1550,-693.95 1550,-1550z"/>
 </g>
</svg>
